# Behold, a Townscape from Townscaper

mtllib Town.mtl
g House
usemtl Town
v -0.450050 0.400000 -0.145191
v -0.391995 0.400000 0.328983
v -0.391995 0.494488 0.328983
v -0.531370 0.671654 -0.111078
v -0.479748 0.671654 0.374519
v -0.387119 0.754331 0.326454
v 0.098368 0.494488 -0.482344
v -0.353521 0.494488 -0.304901
v -0.365343 0.671654 -0.385778
v -0.237711 0.754331 -0.234264
v -0.225712 0.699213 -0.220680
v 0.127773 0.699213 -0.370445
v 0.123718 0.754331 -0.385880
v 0.099380 0.754331 -0.478487
v -0.268623 0.754331 -0.333580
v -0.434650 0.754331 -0.058878
v -0.322655 0.754331 -0.093719
v 0.080114 0.671654 -0.551800
v -0.270115 0.754331 0.265738
v -0.250614 0.699213 0.255619
v -0.302935 0.699213 -0.092911
v -0.450050 0.494488 -0.145191
v 0.098368 0.400000 -0.482344
v -0.353521 0.400000 -0.304901
v 0.227150 0.699213 0.007696
v 0.098368 0.329134 -0.482344
v -0.353521 0.329134 -0.304901
v -0.395250 0.163780 -0.336414
v 0.079100 -0.001575 -0.555658
v -0.440184 -0.001575 -0.362709
v -0.450050 0.329134 -0.145191
v -0.391995 0.329134 0.328983
v -0.499500 0.163780 -0.163927
v -0.484623 -0.001575 0.377050
v -0.544434 -0.001575 -0.190222
v 0.000168 0.400000 0.611467
v -0.074789 0.671654 0.654921
v 0.262104 0.671654 0.671419
v 0.196035 0.494488 0.621059
v 0.603014 0.494488 0.377708
v 0.517185 0.699213 0.293217
v 0.190201 0.699213 0.481875
v 0.195887 0.754331 0.498003
v 0.600054 0.754331 0.374796
v 0.529024 0.754331 0.304871
v 0.268307 0.754331 0.572908
v -0.068586 0.754331 0.556412
v 0.023523 0.754331 0.489561
v 0.656284 0.671654 0.430151
v 0.033508 0.699213 0.474201
v 0.000168 0.494488 0.611467
v 0.603014 0.400000 0.377708
v 0.196035 0.400000 0.621059
v 0.603014 0.329134 0.377708
v 0.196035 0.329134 0.621059
v 0.201378 0.163780 0.668032
v 0.659245 -0.001575 0.433065
v 0.200195 -0.001575 0.714409
v 0.000168 0.329134 0.611467
v -0.010160 0.163780 0.657673
v -0.011341 -0.001575 0.704050
v 0.980692 0.400000 0.180397
v 1.031069 0.671654 0.232903
v 1.071630 0.671654 0.024254
v 1.004274 0.494488 0.059090
v 0.722815 0.494488 -0.238533
v 0.609631 0.699213 -0.182308
v 0.828428 0.699213 0.045208
v 0.849146 0.754331 0.043299
v 0.718912 0.754331 -0.236593
v 0.625242 0.754331 -0.190064
v 0.948072 0.754331 0.005587
v 0.907511 0.754331 0.214235
v 0.828394 0.754331 0.150049
v 0.793066 0.671654 -0.273432
v 0.809561 0.699213 0.142254
v 0.980692 0.494488 0.180397
v 0.722815 0.400000 -0.238533
v 1.004274 0.400000 0.059090
v 0.722815 0.329134 -0.238533
v 1.004274 0.329134 0.059090
v 1.063643 0.163780 0.063084
v 0.796969 -0.001575 -0.275370
v 1.121775 -0.001575 0.071934
v 0.980692 0.329134 0.180397
v 1.038176 0.163780 0.194096
v 1.096304 -0.001575 0.202946
v 0.614832 0.400000 -0.617144
v 0.684439 0.671654 -0.649920
v 0.473011 0.671654 -0.732472
v 0.491909 0.494488 -0.665138
v 0.429512 0.699213 -0.512842
v 0.433081 0.754331 -0.531557
v 0.419645 0.754331 -0.627325
v 0.631073 0.754331 -0.544775
v 0.541252 0.754331 -0.489323
v 0.527851 0.699213 -0.474445
v 0.614832 0.494488 -0.617144
v 0.491909 0.400000 -0.665138
v 0.491909 0.329134 -0.665138
v 0.512249 0.163780 -0.716789
v 0.537439 -0.001575 -0.766304
v 0.614832 0.329134 -0.617144
v 0.645006 0.163780 -0.664955
v 0.670195 -0.001575 -0.714470
vt 0.785156 0.858398
vt 0.772461 0.858398
vt 0.772461 0.862305
vt 0.766602 0.910156
vt 0.754883 0.910156
vt 0.754883 0.914063
vt 0.850586 0.862305
vt 0.860352 0.862305
vt 0.860352 0.875977
vt 0.766602 0.915039
vt 0.766602 0.916992
vt 0.754883 0.916992
vt 0.754883 0.915039
vt 0.766602 0.914063
vt 0.774414 0.914063
vt 0.774414 0.915039
vt 0.850586 0.875977
vt 0.774414 0.910156
vt 0.774414 0.916992
vt 0.791016 0.862305
vt 0.803711 0.862305
vt 0.803711 0.858398
vt 0.791016 0.858398
vt 0.785156 0.862305
vt 0.768555 0.780273
vt 0.756836 0.780273
vt 0.756836 0.789063
vt 0.758789 0.791992
vt 0.768555 0.791992
vt 0.760742 0.834961
vt 0.760742 0.831055
vt 0.773438 0.834961
vt 0.773438 0.831055
vt 0.773438 0.826172
vt 0.760742 0.821289
vt 0.773438 0.821289
vt 0.777344 0.834961
vt 0.777344 0.831055
vt 0.790039 0.834961
vt 0.790039 0.831055
vt 0.777344 0.826172
vt 0.790039 0.821289
vt 0.777344 0.821289
vn -0.922150 0.000000 0.386832
vn -0.887608 0.000000 0.460599
vn -0.748710 0.583772 0.314075
vn -0.747149 0.539859 0.387712
vn -0.747149 0.539859 0.387712
vn -0.235876 -0.372524 -0.897546
vn -0.136392 -0.332599 -0.933153
vn -0.136392 -0.332599 -0.933153
vn 0.162611 0.204038 0.965363
vn 0.164560 0.204531 0.964929
vn 0.247661 0.224876 0.942388
vn 0.000000 1.000000 0.000000
vn 0.247661 0.224876 0.942388
vn -0.114274 0.612935 -0.781826
vn -0.127718 0.622007 -0.772525
vn -0.190531 0.661869 -0.725002
vn -0.190531 0.661869 -0.725002
vn -0.235876 -0.372524 -0.897546
vn 0.898552 0.186265 -0.397378
vn 0.874555 0.170870 -0.453825
vn 0.897947 0.185856 -0.398934
vn -0.748838 0.575395 0.328879
vn -0.852124 -0.279924 0.442185
vn -0.876510 -0.310706 0.367686
vn -0.876509 -0.310706 0.367686
vn -0.569676 0.768843 -0.290428
vn -0.555162 0.769107 -0.316654
vn -0.555162 0.769107 -0.316654
vn -0.569676 0.768843 -0.290428
vn 0.883157 0.234972 0.405983
vn 0.880116 0.235100 0.412460
vn 0.880116 0.235100 0.412460
vn 0.883157 0.234972 0.405983
vn -0.835383 -0.274037 -0.476486
vn -0.835383 -0.274037 -0.476486
vn -0.845771 -0.274006 -0.457812
vn -0.845771 -0.274006 -0.457812
vn -0.144626 0.000000 -0.989486
vn -0.254171 0.000000 -0.967160
vn -0.879429 0.000000 -0.476031
vn -0.879429 0.000000 -0.476031
vn -0.251060 0.155958 -0.955325
vn -0.143757 0.109434 -0.983544
vn -0.134581 0.190297 -0.972458
vn -0.248086 0.217495 -0.944007
vn -0.126469 0.188266 -0.973941
vn -0.860859 0.204417 -0.465979
vn -0.917386 0.101516 0.384833
vn -0.881828 0.113942 0.457599
vn -0.909789 0.180141 0.373942
vn -0.876205 0.159779 0.454681
vn -0.912545 0.181965 0.366266
vn -0.860859 0.204416 -0.465979
vn -0.833622 0.281055 -0.475482
vn -0.833622 0.281055 -0.475482
vn -0.822878 0.280959 -0.493896
vn -0.822878 0.280959 -0.493896
vn -0.865132 0.000000 0.501545
vn -0.698147 0.590574 0.404739
vn 0.751351 -0.327828 0.572713
vn 0.664906 -0.359799 0.654556
vn -0.695737 0.216452 -0.684907
vn -0.762630 0.200443 -0.614994
vn -0.764127 0.200041 -0.613265
vn 0.543463 0.646853 0.535003
vn 0.617064 0.614367 0.491717
vn 0.632196 0.606723 0.481888
vn 0.855042 0.188632 -0.483033
vn 0.855597 0.188147 -0.482239
vn -0.708259 0.580662 0.401498
vn -0.820888 -0.315700 0.475895
vn -0.820888 -0.315700 0.475896
vn -0.022386 0.802938 0.595642
vn -0.022386 0.802938 0.595642
vn -0.052724 0.799647 0.598152
vn -0.052724 0.799647 0.598152
vn 0.118514 0.256930 -0.959136
vn 0.118514 0.256930 -0.959136
vn 0.125905 0.256384 -0.958340
vn -0.058639 -0.302470 0.951353
vn -0.035780 -0.303884 0.952037
vn -0.035780 -0.303884 0.952037
vn -0.058639 -0.302470 0.951353
vn 0.712632 0.000000 0.701539
vn 0.795301 0.000000 0.606214
vn -0.061521 0.000000 0.998106
vn -0.061521 0.000000 0.998106
vn 0.704573 0.149964 0.693605
vn 0.790676 0.107694 0.602689
vn 0.786396 0.187618 0.588542
vn 0.696845 0.209321 0.685997
vn 0.792352 0.185909 0.581047
vn -0.059922 0.226544 0.972156
vn -0.860503 0.103308 0.498861
vn -0.848340 0.183566 0.496612
vn -0.845552 0.185800 0.500521
vn -0.059922 0.226544 0.972156
vn -0.035688 0.311516 0.949571
vn -0.012667 0.312806 0.949733
vn -0.012667 0.312806 0.949733
vn 0.692336 0.000000 0.721576
vn 0.521972 0.656956 0.544017
vn 0.830279 -0.355331 -0.429391
vn 0.830279 -0.355331 -0.429391
vn 0.840617 -0.344937 -0.417590
vn -0.876238 0.206720 0.435286
vn -0.869831 0.211881 0.445535
vn -0.869660 0.212017 0.445803
vn -0.876238 0.206720 0.435286
vn 0.696496 0.628633 -0.345996
vn 0.684305 0.639047 -0.351208
vn 0.681429 0.641453 -0.352410
vn 0.696496 0.628633 -0.345996
vn 0.840617 -0.344937 -0.417590
vn -0.694597 0.223549 -0.683784
vn -0.678488 0.228081 -0.698308
vn -0.678902 0.227967 -0.697942
vn 0.526052 0.655083 0.542343
vn 0.643666 -0.368311 0.670851
vn 0.643666 -0.368310 0.670851
vn 0.677414 0.728370 0.102892
vn 0.677414 0.728370 0.102892
vn 0.680794 0.725293 0.102321
vn -0.967746 0.206460 -0.144370
vn -0.967746 0.206460 -0.144370
vn -0.967838 0.206183 -0.144146
vn -0.967838 0.206183 -0.144146
vn 0.959105 -0.243121 0.144951
vn 0.958755 -0.244097 0.145625
vn 0.958755 -0.244097 0.145625
vn 0.895583 0.000000 -0.444896
vn 0.888246 0.000000 -0.459369
vn 0.988772 0.000000 0.149435
vn 0.886371 0.143060 -0.440319
vn 0.882057 0.117841 -0.456168
vn 0.868413 0.207003 -0.450566
vn 0.877510 0.199881 -0.435918
vn 0.867626 0.207605 -0.451803
vn 0.972498 0.180685 0.146975
vn 0.687101 0.122734 0.716120
vn 0.674488 0.215211 0.706222
vn 0.672574 0.215699 0.707897
vn 0.972498 0.180685 0.146975
vn 0.957150 0.250457 0.145381
vn 0.956783 0.251463 0.146058
vn 0.904712 0.000000 -0.426024
vn 0.698170 0.635981 -0.328765
vn -0.249825 -0.381090 -0.890145
vn -0.249825 -0.381091 -0.890145
vn 0.259277 0.229232 0.938205
vn 0.259580 0.229345 0.938093
vn -0.198371 0.669849 -0.715508
vn -0.200186 0.671682 -0.713280
vn -0.874928 0.213528 0.434635
vn -0.874928 0.213528 0.434635
vn -0.881307 0.216644 0.419956
vn -0.881148 0.216566 0.420330
vn 0.697875 0.634616 -0.332014
vn 0.847198 -0.350858 -0.398941
vn 0.300974 0.747588 -0.592053
vn 0.300974 0.747588 -0.592053
vn 0.301434 0.745181 -0.594847
vn -0.440296 0.218650 0.870822
vn -0.440147 0.218413 0.870957
vn -0.440147 0.218413 0.870958
vn 0.437451 -0.256709 -0.861822
vn 0.437877 -0.257539 -0.861358
vn 0.437877 -0.257539 -0.861358
vn 0.437451 -0.256709 -0.861822
vn -0.270216 0.000000 -0.962800
vn 0.452619 0.000000 -0.891704
vn 0.452619 0.000000 -0.891704
vn -0.268006 0.127623 -0.954927
vn -0.264640 0.223493 -0.938092
vn -0.266030 0.223995 -0.937579
vn 0.444278 0.191092 -0.875272
vn 0.898586 0.116171 -0.423139
vn 0.886400 0.203924 -0.415584
vn 0.887123 0.204258 -0.413875
vn 0.444278 0.191092 -0.875272
vn 0.437061 0.264199 -0.859754
vn 0.437061 0.264199 -0.859754
vn 0.437484 0.265053 -0.859276
f 1/1/1 2/2/2 3/3/2
f 4/4/3 5/5/4 6/6/5
f 7/7/6 8/8/7 9/9/8
f 10/10/9 11/11/10 12/12/11
f 10/10/12 13/13/12 14/6/12
f 10/10/12 14/6/12 15/14/12
f 10/10/12 15/14/12 16/15/12
f 10/10/12 16/15/12 17/16/12
f 10/10/9 12/12/11 13/13/13
f 9/4/14 15/14/15 14/6/16
f 9/4/14 14/6/16 18/5/17
f 7/7/6 9/9/8 18/17/18
f 17/10/12 16/14/12 6/6/12
f 17/10/12 6/6/12 19/13/12
f 17/10/19 19/13/20 20/12/20
f 17/10/19 20/12/20 21/11/21
f 4/4/3 6/6/5 16/14/22
f 3/7/23 5/17/23 4/9/24
f 3/7/23 4/9/24 22/8/25
f 15/14/26 9/4/27 4/18/28
f 15/14/26 4/18/28 16/15/29
f 11/11/30 10/10/31 17/16/32
f 11/11/30 17/16/32 21/19/33
f 4/9/34 9/9/35 8/8/36
f 4/9/34 8/8/36 22/8/37
f 8/20/38 7/21/39 23/22/39
f 8/20/38 23/22/39 24/23/38
f 1/1/1 3/3/2 22/24/1
f 1/1/40 22/24/40 8/20/41
f 1/1/40 8/20/41 24/23/41
f 25/25/12 12/26/12 11/27/12
f 25/25/12 11/27/12 21/28/12
f 25/25/12 21/28/12 20/29/12
f 23/30/39 26/31/42 24/32/38
f 26/31/42 27/33/43 24/32/38
f 26/31/42 28/34/44 27/33/43
f 26/31/42 29/35/45 28/34/44
f 29/35/45 30/36/46 28/34/44
f 24/32/41 27/33/47 1/37/40
f 1/37/1 31/38/48 2/39/2
f 31/38/48 32/40/49 2/39/2
f 32/40/49 31/38/48 33/41/50
f 32/40/49 33/41/50 34/42/51
f 33/41/50 35/43/52 34/42/51
f 27/33/47 31/38/53 1/37/40
f 27/33/47 28/34/54 31/38/53
f 28/34/54 33/41/55 31/38/53
f 28/34/54 30/36/56 33/41/55
f 30/36/56 35/43/57 33/41/55
f 3/3/2 2/2/2 36/1/58
f 6/6/5 5/5/4 37/4/59
f 38/9/60 39/8/60 40/7/61
f 41/12/62 42/11/63 43/10/64
f 44/6/12 45/13/12 43/10/12
f 46/14/12 44/6/12 43/10/12
f 47/15/12 46/14/12 43/10/12
f 48/16/12 47/15/12 43/10/12
f 45/13/62 41/12/62 43/10/64
f 44/6/65 46/14/66 38/4/67
f 49/5/65 44/6/65 38/4/67
f 49/17/61 38/9/60 40/7/61
f 6/6/12 47/14/12 48/10/12
f 19/13/12 6/6/12 48/10/12
f 20/12/20 19/13/20 48/10/68
f 50/11/69 20/12/20 48/10/68
f 47/14/70 6/6/5 37/4/59
f 37/9/71 5/17/23 3/7/23
f 51/8/72 37/9/71 3/7/23
f 37/18/73 38/4/74 46/14/75
f 47/15/76 37/18/73 46/14/75
f 48/16/77 43/10/78 42/11/79
f 50/19/79 48/16/77 42/11/79
f 39/8/80 38/9/81 37/9/82
f 51/8/83 39/8/80 37/9/82
f 52/22/84 40/21/84 39/20/85
f 53/23/85 52/22/84 39/20/85
f 51/24/58 3/3/2 36/1/58
f 39/20/86 51/24/87 36/1/87
f 53/23/86 39/20/86 36/1/87
f 42/27/12 41/26/12 25/25/12
f 50/28/12 42/27/12 25/25/12
f 20/29/12 50/28/12 25/25/12
f 53/32/85 54/31/88 52/30/84
f 53/32/85 55/33/89 54/31/88
f 55/33/89 56/34/90 54/31/88
f 56/34/90 57/35/91 54/31/88
f 56/34/90 58/36/92 57/35/91
f 36/37/87 55/33/93 53/32/86
f 2/39/2 59/38/94 36/37/58
f 2/39/2 32/40/49 59/38/94
f 60/41/95 59/38/94 32/40/49
f 34/42/51 60/41/95 32/40/49
f 34/42/51 61/43/96 60/41/95
f 36/37/87 59/38/97 55/33/93
f 59/38/97 56/34/98 55/33/93
f 59/38/97 60/41/98 56/34/98
f 60/41/98 58/36/99 56/34/98
f 60/41/98 61/43/100 58/36/99
f 40/3/84 52/2/84 62/1/101
f 44/6/65 49/5/65 63/4/102
f 64/9/103 65/8/104 66/7/105
f 67/12/106 68/11/107 69/10/108
f 70/6/12 71/13/12 69/10/12
f 72/14/12 70/6/12 69/10/12
f 73/15/12 72/14/12 69/10/12
f 74/16/12 73/15/12 69/10/12
f 71/13/109 67/12/106 69/10/108
f 70/6/110 72/14/111 64/4/112
f 75/5/113 70/6/110 64/4/112
f 75/17/114 64/9/103 66/7/105
f 44/6/12 73/14/12 74/10/12
f 45/13/12 44/6/12 74/10/12
f 41/12/115 45/13/115 74/10/116
f 76/11/117 41/12/115 74/10/116
f 73/14/118 44/6/65 63/4/102
f 63/9/119 49/17/61 40/7/61
f 77/8/120 63/9/119 40/7/61
f 63/18/121 64/4/122 72/14/123
f 73/15/123 63/18/121 72/14/123
f 74/16/124 69/10/125 68/11/126
f 76/19/127 74/16/124 68/11/126
f 65/8/128 64/9/129 63/9/130
f 77/8/128 65/8/128 63/9/130
f 78/22/131 66/21/131 65/20/132
f 79/23/132 78/22/131 65/20/132
f 77/24/101 40/3/84 62/1/101
f 65/20/133 77/24/133 62/1/133
f 79/23/133 65/20/133 62/1/133
f 68/27/12 67/26/12 25/25/12
f 76/28/12 68/27/12 25/25/12
f 41/29/12 76/28/12 25/25/12
f 79/32/132 80/31/134 78/30/131
f 79/32/132 81/33/135 80/31/134
f 81/33/135 82/34/136 80/31/134
f 82/34/136 83/35/137 80/31/134
f 82/34/136 84/36/138 83/35/137
f 62/37/133 81/33/139 79/32/133
f 52/39/84 85/38/140 62/37/101
f 52/39/84 54/40/88 85/38/140
f 86/41/141 85/38/140 54/40/88
f 57/42/91 86/41/141 54/40/88
f 57/42/91 87/43/142 86/41/141
f 62/37/133 85/38/143 81/33/139
f 85/38/143 82/34/144 81/33/139
f 85/38/143 86/41/144 82/34/144
f 86/41/144 84/36/145 82/34/144
f 86/41/144 87/43/145 84/36/145
f 66/3/131 78/2/131 88/1/146
f 70/6/110 75/5/113 89/4/147
f 90/9/148 91/8/149 7/7/6
f 12/12/11 92/11/150 93/10/151
f 14/6/12 13/13/12 93/10/12
f 94/14/12 14/6/12 93/10/12
f 95/15/12 94/14/12 93/10/12
f 96/16/12 95/15/12 93/10/12
f 13/13/13 12/12/11 93/10/151
f 14/6/16 94/14/152 90/4/153
f 18/5/17 14/6/16 90/4/153
f 18/17/18 90/9/148 7/7/6
f 70/6/12 95/14/12 96/10/12
f 71/13/12 70/6/12 96/10/12
f 67/12/154 71/13/155 96/10/156
f 97/11/157 67/12/154 96/10/156
f 95/14/158 70/6/110 89/4/147
f 89/9/159 75/17/114 66/7/105
f 98/8/159 89/9/159 66/7/105
f 89/18/160 90/4/161 94/14/162
f 95/15/162 89/18/160 94/14/162
f 96/16/163 93/10/163 92/11/164
f 97/19/165 96/16/163 92/11/164
f 91/8/166 90/9/167 89/9/168
f 98/8/169 91/8/166 89/9/168
f 23/22/39 7/21/39 91/20/170
f 99/23/170 23/22/39 91/20/170
f 98/24/146 66/3/131 88/1/146
f 91/20/171 98/24/172 88/1/172
f 99/23/171 91/20/171 88/1/172
f 92/27/12 12/26/12 25/25/12
f 97/28/12 92/27/12 25/25/12
f 67/29/12 97/28/12 25/25/12
f 99/32/170 26/31/42 23/30/39
f 99/32/170 100/33/173 26/31/42
f 100/33/173 101/34/174 26/31/42
f 101/34/174 29/35/45 26/31/42
f 101/34/174 102/36/175 29/35/45
f 88/37/172 100/33/176 99/32/171
f 78/39/131 103/38/177 88/37/146
f 78/39/131 80/40/134 103/38/177
f 104/41/178 103/38/177 80/40/134
f 83/42/137 104/41/178 80/40/134
f 83/42/137 105/43/179 104/41/178
f 88/37/172 103/38/180 100/33/176
f 103/38/180 101/34/181 100/33/176
f 103/38/180 104/41/182 101/34/181
f 104/41/182 102/36/183 101/34/181
f 104/41/182 105/43/183 102/36/183
g Fencing
usemtl Town
v 0.231058 0.754331 0.526230
v 0.558621 0.754331 0.334005
v 0.558621 0.994488 0.334005
v 0.231058 0.994488 0.526230
v -0.012173 0.754331 0.519526
v -0.012173 0.994488 0.519526
v -0.318867 0.754331 0.291037
v -0.318867 0.994488 0.291037
v 0.422659 0.754331 -0.569220
v 0.113577 0.754331 -0.424465
v 0.113577 0.994488 -0.424465
v 0.422659 0.994488 -0.569220
v 0.577894 0.754331 -0.515245
v 0.577894 0.994488 -0.515245
v 0.664270 0.754331 -0.209452
v 0.664270 0.994488 -0.209452
v 0.886915 0.754331 0.023937
v 0.886915 0.994488 0.023937
v 0.864180 0.754331 0.175341
v 0.864180 0.994488 0.175341
v -0.368605 0.754331 -0.073399
v -0.368605 0.994488 -0.073399
v -0.254015 0.754331 -0.274162
v -0.254015 0.994488 -0.274162
vt 0.870117 0.987305
vt 0.862305 0.987305
vt 0.862305 0.997070
vt 0.870117 0.997070
vt 0.874023 0.987305
vt 0.874023 0.997070
vt 0.881836 0.987305
vt 0.881836 0.997070
vn 0.572100 0.000000 0.820184
vn -0.706495 0.000000 0.707718
vn -0.001312 0.000000 -0.999999
vn 0.774862 0.000000 -0.632131
vn 0.968999 0.000000 -0.247065
vn 0.855396 0.000000 0.517975
vn -0.985843 0.000000 0.167673
vn -0.463987 0.000000 -0.885842
f 106/44/184 107/45/84 108/46/84
f 109/47/184 106/44/184 108/46/84
f 110/48/185 106/44/184 109/47/184
f 111/49/185 110/48/185 109/47/184
f 112/50/2 110/48/185 111/49/185
f 113/51/2 112/50/2 111/49/185
f 114/44/186 115/45/39 116/46/39
f 117/47/186 114/44/186 116/46/39
f 118/48/187 114/44/186 117/47/186
f 119/49/187 118/48/187 117/47/186
f 120/50/131 118/48/187 119/49/187
f 121/51/131 120/50/131 119/49/187
f 122/44/188 120/45/131 121/46/131
f 123/47/188 122/44/188 121/46/131
f 124/48/189 122/44/188 123/47/188
f 125/49/189 124/48/189 123/47/188
f 107/50/84 124/48/189 125/49/189
f 108/51/84 107/50/84 125/49/189
f 126/44/190 112/45/2 113/46/2
f 127/47/190 126/44/190 113/46/2
f 128/48/191 126/44/190 127/47/190
f 129/49/191 128/48/191 127/47/190
f 115/50/39 128/48/191 129/49/191
f 116/51/39 115/50/39 129/49/191
g Sand
usemtl Town
v 0.079100 0.000000 -0.555658
v 0.079100 0.000000 -0.555658
v -0.440184 0.000000 -0.362709
v -0.440184 0.000000 -0.362709
v -0.544434 0.000000 -0.190222
v -0.544434 0.000000 -0.190222
v -0.484623 0.000000 0.377050
v -0.484623 0.000000 0.377050
v 0.200195 0.000000 0.714409
v 0.200195 0.000000 0.714409
v 0.659245 0.000000 0.433065
v 0.659245 0.000000 0.433065
v -0.011341 0.000000 0.704050
v -0.011341 0.000000 0.704050
v 0.537439 0.000000 -0.766304
v 0.537439 0.000000 -0.766304
v 0.796969 0.000000 -0.275370
v 0.796969 0.000000 -0.275370
v 0.670195 0.000000 -0.714470
v 0.670195 0.000000 -0.714470
v 1.121775 0.000000 0.071934
v 1.121775 0.000000 0.071934
v 1.096304 0.000000 0.202946
v 1.096304 0.000000 0.202946
v 0.079100 0.000000 -0.555658
v 0.079100 0.000000 -0.555658
v -0.440184 0.000000 -0.362709
v -0.440184 0.000000 -0.362709
v -0.544434 0.000000 -0.190222
v -0.544434 0.000000 -0.190222
v -0.484623 0.000000 0.377050
v -0.484623 0.000000 0.377050
v 0.200195 0.000000 0.714409
v 0.200195 0.000000 0.714409
v 0.659245 0.000000 0.433065
v 0.659245 0.000000 0.433065
v -0.011341 0.000000 0.704050
v -0.011341 0.000000 0.704050
v 0.537439 0.000000 -0.766304
v 0.537439 0.000000 -0.766304
v 0.796969 0.000000 -0.275370
v 0.796969 0.000000 -0.275370
v 0.670195 0.000000 -0.714470
v 0.670195 0.000000 -0.714470
v 1.121775 0.000000 0.071934
v 1.121775 0.000000 0.071934
v 1.096304 0.000000 0.202946
v 1.096304 0.000000 0.202946
vt 0.241211 0.114258
vt 0.241211 0.114258
vt 0.241211 0.114258
vt 0.241211 0.114258
vt 0.241211 0.114258
vt 0.241211 0.114258
vt 0.241211 0.114258
vt 0.241211 0.114258
vt 0.241211 0.114258
vt 0.241211 0.114258
vt 0.241211 0.114258
vt 0.241211 0.114258
vt 0.241211 0.114258
vt 0.241211 0.114258
vt 0.241211 0.114258
vt 0.241211 0.114258
vt 0.241211 0.114258
vt 0.241211 0.114258
vt 0.241211 0.114258
vt 0.241211 0.114258
vt 0.241211 0.114258
vt 0.241211 0.114258
vt 0.241211 0.114258
vt 0.241211 0.114258
vt 0.241211 0.114258
vt 0.241211 0.114258
vt 0.241211 0.114258
vt 0.241211 0.114258
vt 0.241211 0.114258
vt 0.241211 0.114258
vt 0.241211 0.114258
vt 0.241211 0.114258
vt 0.241211 0.114258
vt 0.241211 0.114258
vt 0.241211 0.114258
vt 0.241211 0.114258
vt 0.241211 0.114258
vt 0.241211 0.114258
vt 0.241211 0.114258
vt 0.241211 0.114258
vt 0.241211 0.114258
vt 0.241211 0.114258
vt 0.241211 0.114258
vt 0.241211 0.114258
vt 0.241211 0.114258
vt 0.241211 0.114258
vt 0.241211 0.114258
vt 0.241211 0.114258
g Water
usemtl Town
v -0.514301 0.000000 -2.000381
v 0.079100 0.000000 -0.555658
v -1.375879 0.000000 -1.445627
v -0.440184 0.000000 -0.362709
v -1.875023 0.000000 -0.392077
v -0.544434 0.000000 -0.190222
v -1.579206 0.000000 1.018147
v -0.484623 0.000000 0.377050
v 0.539957 0.000000 2.145081
v 0.200195 0.000000 0.714409
v 1.452181 0.000000 1.771587
v 0.659245 0.000000 0.433065
v -0.553568 0.000000 1.988811
v -0.011341 0.000000 0.704050
v 0.533403 0.000000 -2.093052
v 0.537439 0.000000 -0.766304
v 2.143808 0.000000 -1.032022
v 0.796969 0.000000 -0.275370
v 1.560770 0.000000 -1.667683
v 0.670195 0.000000 -0.714470
v 2.373545 0.000000 -0.182751
v 1.121775 0.000000 0.071934
v 2.144262 0.000000 0.944468
v 1.096304 0.000000 0.202946
v -0.968823 0.000000 -1.773502
v -1.841837 0.000000 0.310629
v -1.695051 0.000000 -0.988194
v 1.014997 0.000000 2.006834
v -1.115589 0.000000 1.603148
v 0.015888 0.000000 2.152349
v -0.012033 0.000000 -2.112444
v 1.907274 0.000000 -1.359629
v 1.083063 0.000000 -1.928375
v 2.298731 0.000000 -0.653496
v 1.837954 0.000000 1.419641
v 2.325373 0.000000 0.377535
vt 0.239258 0.143555
vt 0.239258 0.114258
vt 0.239258 0.143555
vt 0.239258 0.114258
vt 0.239258 0.143555
vt 0.239258 0.114258
vt 0.239258 0.143555
vt 0.239258 0.114258
vt 0.239258 0.143555
vt 0.239258 0.114258
vt 0.239258 0.143555
vt 0.239258 0.114258
vt 0.239258 0.143555
vt 0.239258 0.114258
vt 0.239258 0.143555
vt 0.239258 0.114258
vt 0.239258 0.143555
vt 0.239258 0.114258
vt 0.239258 0.143555
vt 0.239258 0.114258
vt 0.239258 0.143555
vt 0.239258 0.114258
vt 0.239258 0.143555
vt 0.239258 0.114258
vt 0.239258 0.143555
vt 0.239258 0.143555
vt 0.239258 0.143555
vt 0.239258 0.143555
vt 0.239258 0.143555
vt 0.239258 0.143555
vt 0.239258 0.143555
vt 0.239258 0.143555
vt 0.239258 0.143555
vt 0.239258 0.143555
vt 0.239258 0.143555
vt 0.239258 0.143555
f 202/124 181/103 179/101
f 178/100 202/124 179/101
f 202/124 180/102 181/103
f 203/125 185/107 183/105
f 182/104 203/125 183/105
f 203/125 184/106 185/107
f 204/126 183/105 181/103
f 180/102 204/126 181/103
f 204/126 182/104 183/105
f 205/127 189/111 187/109
f 186/108 205/127 187/109
f 205/127 188/110 189/111
f 206/128 191/113 185/107
f 184/106 206/128 185/107
f 206/128 190/112 191/113
f 207/129 187/109 191/113
f 190/112 207/129 191/113
f 207/129 186/108 187/109
f 208/130 179/101 193/115
f 192/114 208/130 193/115
f 208/130 178/100 179/101
f 209/131 197/119 195/117
f 194/116 209/131 195/117
f 209/131 196/118 197/119
f 210/132 193/115 197/119
f 196/118 210/132 197/119
f 210/132 192/114 193/115
f 211/133 195/117 199/121
f 198/120 211/133 199/121
f 211/133 194/116 195/117
f 212/134 201/123 189/111
f 188/110 212/134 189/111
f 212/134 200/122 201/123
f 213/135 199/121 201/123
f 200/122 213/135 201/123
f 213/135 198/120 199/121
